# Blender3D v249 OBJ File: 
# www.blender3d.org
mtllib earthcube.mtl
v 1.000000 -1.000000 -1.000000
v 1.000000 -1.000000 1.000000
v -1.000000 -1.000000 1.000000
v -1.000000 -1.000000 -1.000000
v 1.000000 1.000000 -1.000000
v 0.999999 1.000000 1.000001
v -1.000000 1.000000 1.000000
v -1.000000 1.000000 -1.000000
vt 0.000000 0.000000
vt 1.000000 0.000000
vt 0.000000 1.000000
vt 1.000000 1.000000
vn 0.000000 0.000000 -1.000000
vn -1.000000 -0.000000 -0.000000
vn -0.000000 -0.000000 1.000000
vn -0.000001 0.000000 1.000000
vn 1.000000 -0.000000 0.000000
vn 1.000000 0.000000 0.000001
vn 0.000000 1.000000 -0.000000
vn -0.000000 -1.000000 0.000000
usemtl Material_earth.bmp
s off
f 5/1/1 1/2/1 8/3/1
f 1/2/1 4/4/1 8/3/1
f 3/1/2 7/2/2 8/4/2
f 3/1/2 8/4/2 4/3/2
f 2/1/3 6/2/3 3/3/3
f 6/2/4 7/4/4 3/3/4
f 1/1/5 5/2/5 2/3/5
f 5/2/6 6/4/6 2/3/6
f 5/1/7 8/2/7 7/4/7
f 5/1/7 7/4/7 6/3/7
f 1/1/8 2/2/8 3/4/8
f 1/1/8 3/4/8 4/3/8
